<?xml version="1.0" encoding="utf-8"?>
<!-- Generator: Adobe Illustrator 24.2.1, SVG Export Plug-In . SVG Version: 6.00 Build 0)  -->
<svg version="1.1" id="Layer_1" xmlns="http://www.w3.org/2000/svg" xmlns:xlink="http://www.w3.org/1999/xlink" x="0px" y="0px"
	 viewBox="0 0 500 500" style="enable-background:new 0 0 500 500;" xml:space="preserve">
<style type="text/css">
	.st0{fill:#D3EFED;}
	.st1{fill:#BDE5E4;}
	.st2{fill:#A5DBD8;}
	.st3{fill:#749B37;}
	.st4{fill:#F492A1;}
	.st5{fill:#C42737;}
	.st6{fill:#96C95B;}
	.st7{fill:#E84F57;}
</style>
<g id="Layer_2_1_">
	<g>
		<circle class="st0" cx="229.2" cy="87.2" r="8"/>
		<circle class="st1" cx="247.4" cy="87.2" r="8"/>
		<circle class="st2" cx="265.5" cy="87.2" r="8"/>
		<path class="st1" d="M229.2,75.9c3.7,0,7,1.8,9.1,4.6c2.1-2.8,5.3-4.6,9.1-4.6c3.7,0,7,1.8,9.1,4.6c2.1-2.8,5.3-4.6,9.1-4.6
			c0.1,0,0.3,0,0.4,0c2.7-3.8,4.3-8.4,4.3-13.4c0-12.6-10.3-22.9-22.9-22.9c-12.6,0-22.9,10.3-22.9,22.9c0,5,1.6,9.6,4.3,13.4
			C229,75.9,229.1,75.9,229.2,75.9z"/>
		<g>
			<path class="st3" d="M233.2,314.4c1.1-2.8,2.7-9.7,0-21.4c-2.3-9.7-9.2-16.2-17.4-20.2c1,4.3,1.6,12.2-0.9,26.6
				C223.4,305.6,229.3,310.5,233.2,314.4z"/>
			<path class="st3" d="M242.6,343.7C242.6,343.7,242.6,343.7,242.6,343.7c1.1-6.2,2.5-11.8,4.1-16.6c0.5-1.5,0.9-2.9,1.4-4.3
				c-1.6,1.9-3.2,3.8-4.9,5.7c-2.2,2.4-4.2,4.8-6.2,7.3c-3.9,9.5-6.7,18.5-6.1,26.4c0.8,10.3,2.2,19.3,4,26.9
				c3.7-0.4,7.8-1.3,10.1-1.9c-4.9-15.1-4.7-30.2-2.6-43.1C242.6,344,242.6,343.9,242.6,343.7z"/>
			<path class="st3" d="M227.5,362.5c-0.4-5.3,0.5-10.9,2.3-16.8c-5.9,8.9-10.6,17.8-14,26.1c0.7,9.9,3.8,35.1,10.6,41.9
				c5.3,0,10.8-0.1,15.6-0.4C234.3,404,229.4,386.9,227.5,362.5z"/>
			<path class="st4" d="M219.9,181.6c-2.2,0.3-4.2,0.9-6.2,1.7c2.6,3.6,7,6.7,8.7,7.8c2.7-0.7,11.7-3,15.3-3.3
				c1.9-0.2,4.7-2.4,6.8-4.3C235.9,179.8,227.6,180.4,219.9,181.6z"/>
			<path class="st3" d="M218.7,312.8c7.1,10.7,10.8,20,12.5,24.9c0.9-1.2,1.8-2.4,2.8-3.6c1.2-2.9,2.5-5.8,3.8-8.7
				c-1.1-2.1-6.5-10.5-29.7-26.4C212.4,303.8,215.9,308.5,218.7,312.8z"/>
			<path class="st5" d="M250,140.6c-0.2-0.1-0.5-0.3-1.1-0.1c-2.9,0.7-7.2,6.7-10,11.5c4.4,0.7,8.7,2.4,12.2,4.1
				C252.3,150,252.6,142.3,250,140.6z"/>
			<path class="st6" d="M266.8,247.2c3,0.6,6.4,1,10.2,0.8c-1.6-6.2-6.1-11.5-8-13.6c-1.6,0.9-3.2,1.7-4.7,2.4
				c-4.1,1.9-8.3,2.6-12.6,2.7c0.1,0.1,0.3,0.3,0.4,0.4c0.1,0.1,0.3,0.2,0.4,0.3c2.7,2.4,7.2,5.3,14,6.8
				C266.6,247.2,266.7,247.2,266.8,247.2z"/>
			<path class="st5" d="M235.4,134.7c-0.1,0-0.2-0.1-0.5-0.1c-3.1,0.4-9.6,8-14.4,14.6c0.5-0.1,0.9-0.1,1.4-0.2
				c6.4-0.7,10.8-0.4,13.4,1C236.9,144.1,237.7,136.7,235.4,134.7z"/>
			<path class="st3" d="M283.1,223.2c-3.2,4-7.1,7.1-10.9,9.5c2.2,2.4,6,7.2,7.9,13.1C282.6,242.1,286.1,234.4,283.1,223.2z"/>
			<path class="st7" d="M210.1,167.7c0,2.4,0.3,8.4,2,12.5c2.3-0.9,4.8-1.7,7.4-2.1c8.9-1.4,18.1-1.7,27.4,2.5
				c2.1-3.1,7.4-11.6,9.1-18c-0.8-0.5-2.2-1.4-3.9-2.3c0,0-0.1,0-0.1,0c-0.3-0.1-0.6-0.2-0.8-0.5c-4-2.1-9.4-4.4-14.6-4.7
				c-2.6,1.2-16.3,8-26.1,12.4C210.3,167.6,210.2,167.6,210.1,167.7z"/>
			<path class="st6" d="M207.3,407.7c0.2,2.4,0.7,3.4,1,3.6c0.1,0.1,0.3,0.2,0.4,0.3c2.1,1.2,7.1,1.9,13.3,2.1
				c-5.3-8.3-7.9-24.9-9-34.6C208.5,391.6,206.8,402,207.3,407.7z"/>
			<path class="st5" d="M258.9,164.7c-2.1,6.5-6.8,14.2-9,17.5c5.2,3,10.4,7.5,15.6,14.2c0.7-2,1.5-4,2.3-6.1
				c2.8-7.6,6-16.3,10.7-26.4c5-10.8,10.4-17.2,15.8-19c0.3-0.1,0.6-0.2,0.8-0.2l0,0c-7.6-8-16.4-9.3-20.4-9.5
				c0.8,2.5,1.1,4.9,0.5,7.2C273.6,147.9,270.3,159.4,258.9,164.7z"/>
			<path class="st5" d="M300.9,164.7c-7.3,0.5-13.8,3.5-19.5,9.1c-5.4,5.4-8,11.2-8.2,11.7c-0.8,2.1-1.5,4.1-2.3,6.1
				c-3.6,9.9-6.5,17.7-11,24.4c-4.9,7.2-12,15.5-20.9,19.3c8.5,1.1,16.6,1.9,23.9-1.4c1.8-0.8,3.6-1.7,5.5-2.8
				c0.1-0.1,0.2-0.1,0.3-0.2c6.8-3.9,13.7-9.6,16.7-19.1c0.9-2.9,1.5-7.1,2.2-12C289.4,187.5,291.7,171.6,300.9,164.7z"/>
			<path class="st2" d="M328.7,380.8c-8.6,6.1-18.2,11.7-28.7,16.8c6.3,5.4,24.7,22.6,33.9,46.8h63c-9.4-11.8-28.8-32.7-36.5-60
				c-1.7-6.1-2.5-16.9-3-30.8C349.9,363.4,340.3,372.5,328.7,380.8z"/>
			<path class="st3" d="M297.6,224.1c2.1-7.7-4.5-13-7.9-15.3c-0.3,1.4-0.6,2.7-1,3.9c-0.5,1.6-1.1,3-1.8,4.3
				C291.1,217.9,295.2,221.6,297.6,224.1z"/>
			<path class="st3" d="M265.1,252.8c-0.1-0.9-0.2-1.7-0.3-2.5c-3.9-1-7.2-2.4-9.8-4c1.8,6.1,3.6,17.3,1.7,35.1
				c-1.4,13.9-7.8,27.8-13.9,41.2c-0.4,0.8-0.7,1.6-1.1,2.4c5-5.6,9-11,12.3-16.2c2.8-5.8,5.1-9.4,5.4-9.9
				C268.5,279.5,266.5,264.1,265.1,252.8z"/>
			<path class="st7" d="M191.5,167.8c-3.4,2-9.2,6.6-12.5,16.5c3.3,0.5,9.8,2.2,16.3,7.8c2.2-2.3,7-7.1,13.6-10.5
				c-1.7-4.1-2.1-9.5-2.2-12.6c-3.5,1.2-6.5,1.6-8.7,1.6c-3.5,0-5.4-0.9-5.5-1c-0.6-0.3-1-1-0.9-1.7
				C191.5,167.9,191.5,167.8,191.5,167.8z"/>
			<path class="st3" d="M289,297.7c-4.3,3.2-8.5,6-12.3,8.4c-11,6.8-20.6,11.1-23.1,12.2c-1.2,3-2.5,6.4-3.6,10
				c-0.4,1.3-0.8,2.6-1.2,4c4.1-4.7,9.7-8.3,17.1-13c4.8-3.1,10.3-6.6,16.7-11.2c10.7-7.7,17.5-16.7,21.7-24
				c-4.6,5-9.8,9.5-14.9,13.4C289.2,297.6,289.1,297.6,289,297.7z"/>
			<path class="st6" d="M296.2,255.6c-6,6.1-6.8,26.5-6.5,37.2c8-6.4,15.6-14,20.7-22.6c3.3-11.5,2.4-21.1,1.8-25.3
				C305.5,248.7,299.2,252.5,296.2,255.6z"/>
			<path class="st6" d="M338,229.2c-5.4,4.1-13,8.4-20.5,12.7c-0.7,0.4-1.4,0.8-2.1,1.2c0.6,3,1.7,10.9,0,21.1
				C321.8,255.6,333.1,240.2,338,229.2z"/>
			<path class="st3" d="M339.1,248c0.7-5.4,1-11.1,1.2-15.7c-2.5,5.1-5.9,10.9-9.6,16.4C333,248.3,335.9,247.9,339.1,248z"/>
			<path class="st3" d="M294.8,302.1c3.5-0.5,8.6-1.7,14.1-3.4c9.2-2.9,15.2-5.9,16.3-7.3c3.2-4,10.7-24.9,13-37.6
				c0.1-0.7,0.3-1.5,0.4-2.3c-5.1-0.1-9.4,1.1-10.9,1.6c-6.6,9.5-13,17.6-14.3,19.2C312.3,275.9,307.6,289.2,294.8,302.1z"/>
			<path class="st3" d="M241.6,416.9c-3.3,0.2-8,0.4-12.9,0.4c-0.3,0-0.5,0-0.8,0c-0.7,0-1.5,0-2.2,0l0,0l0,0c-3.9,0-7-0.2-9.5-0.5
				c6.6,4.5,13.5,8.9,16.1,10.2L241.6,416.9z"/>
			<path class="st1" d="M325.1,167.8c-8.3-2.6-15.5-2.8-16.7-2.8c-12.7,2.7-15.4,21.4-17.4,35.1c-0.3,1.8-0.5,3.4-0.7,5
				c1.5,0.9,4.3,2.7,6.7,5.4c4.8,5.4,5.7,11.4,2.7,17.6c-0.3,0.5-0.8,0.9-1.3,0.9c-0.1,0-0.1,0-0.2,0c-0.5,0-1-0.2-1.3-0.6
				c-1.7-2.1-6.9-7.6-10.9-8.1c6.1,19.3-5.1,30.1-5.5,30.5l0,0c0,0-0.1,0-0.1,0.1c-0.1,0-0.1,0.1-0.2,0.1c0,0-0.1,0-0.1,0.1
				c-0.1,0-0.1,0.1-0.2,0.1c0,0-0.1,0-0.1,0c-0.1,0-0.1,0-0.2,0c0,0,0,0-0.1,0c0,0,0,0-0.1,0h0c-1.3,0.1-2.6,0.1-3.9,0.1
				c-2.6,0-4.9-0.2-7.1-0.5c0.1,0.4,0.1,0.9,0.2,1.3c1.1,8.4,2.4,18.8-0.3,31.6c-1.9,9-5.6,17.7-11.1,26.5c-0.5,1-0.9,2-1.4,3.1
				c6.2-2.9,18.6-9.2,30.7-18.2c-0.2-5.7-0.9-33.7,7.4-42.2c4.1-4.2,12.8-9.1,22-14.3c10.2-5.8,20.7-11.7,24.7-16.6
				c0.9-1.3,6.4-9.2,11.7-13.3c-0.9-7.9-2-15.6-3.2-22.9C344.3,177.5,336.3,171.3,325.1,167.8z"/>
			<path class="st7" d="M197.8,194.5c1.2,1.2,2.3,2.6,3.4,4.1c2.7,3.7,5.3,7.9,7.9,12c6.5,10.4,13.3,21.2,20.5,23.2
				c11.9-0.4,21.5-11,27.4-19.9c2.7-4,4.8-8.5,6.9-13.7c-5.4-7.5-10.9-12.3-16.2-15.2c-1.9,1.9-6,5.8-9.7,6.2
				c-3.9,0.4-15.4,3.3-15.5,3.4c-0.1,0-0.3,0.1-0.4,0.1c-0.3,0-0.6-0.1-0.9-0.3c-0.3-0.2-7-4.4-10.7-9.7
				C204.4,187.9,199.7,192.4,197.8,194.5z"/>
			<path class="st2" d="M264.7,121.7c2.9,2.1,6.2,5.8,8.4,9.9c3.3-0.1,14.6,0.4,24.4,10.6c8.6,9,11.3,16.3,12.1,19.3
				c2.7,0.1,9.1,0.6,16.4,2.9c8.9,2.8,16,7.2,21.2,13.2c-1.8-8.4-3.9-16.2-6.4-23.1c-4.6-12.6-10.9-23-18.2-31.6
				c-9.2-10.8-20.1-19.1-32-24.9C277.2,103.6,267.6,117.3,264.7,121.7z"/>
			<path class="st1" d="M305.5,303.3c-5.4,1.5-10.4,2.5-13.6,2.5c-0.3,0-0.7,0-1,0c-2,1.8-4.1,3.5-6.4,5.1
				c-6.5,4.7-12,8.2-16.9,11.3c-11.8,7.6-18.4,11.8-21.6,22.3c-2.2,12.9-2.4,28.3,3,43.5c0.2,0.5,0.1,0.9-0.1,1.4s-0.6,0.7-1.1,0.9
				c-0.3,0.1-6.3,1.7-11.9,2.3c2.6,9.2,6.1,16.1,10.4,20.4c4.1-0.9,22.1-5.2,43.1-14.3c21.3-9.3,50.1-25.5,67.9-50.6
				c-0.1-2.6-0.1-5.2-0.2-7.9c-10.5-3.6-21.8-10.4-33.8-20.3C314.3,312.5,307.7,305.6,305.5,303.3z"/>
			<path class="st2" d="M344,223.2c0,3.1-0.2,19.3-2.4,31.2c-2.3,12.7-9.9,34.3-13.8,39.1c-2,2.5-10.2,6-18.6,8.7
				c6.2,6.4,26.4,26.3,47.8,34.3c-0.5-35.2-0.2-82.1-4.5-123.2C349.4,216.2,345.9,220.5,344,223.2z"/>
			<path class="st0" d="M201.1,143c1.4-1.5,3.7-3.8,6.2-6.1c2.7-2.4,5-4.1,7-5.2c1.6-2.4,9.7-14.1,26.8-22.1l0,0c0,0,0,0,0.1,0
				c0.1,0,0.2-0.1,0.2-0.1c0,0,0,0,0.1,0c0.1,0,0.2,0,0.2,0c0,0,0.1,0,0.1,0c0.1,0,0.2,0,0.3,0h0c0.1,0,0.2,0,0.3,0.1
				c0,0,0.1,0,0.1,0c0.1,0,0.2,0.1,0.3,0.1l0,0c0.1,0.1,13,7.1,19,10.4c2.8-4.3,11.7-17.2,24.7-23.7c-3.6-1.5-7.2-2.8-11-3.9
				c-1.9,3.6-5.6,6.1-9.9,6.1c-3.7,0-7-1.8-9.1-4.6c-2.1,2.8-5.3,4.6-9.1,4.6c-3.7,0-7-1.8-9.1-4.6c-2.1,2.8-5.3,4.6-9.1,4.6
				c-4.3,0-8.1-2.5-9.9-6.1c-17.5,5.1-33.8,15.1-46.7,30.1C180,125.1,191.5,130.9,201.1,143z"/>
			<path class="st1" d="M399.5,447.9h-66.8l0,0l0,0H187.3l0,0l0,0H95.3c-7.8,11.5-3.1,17.6-3.1,17.6h155.2h155.2
				C402.6,465.5,407.3,459.3,399.5,447.9z"/>
			<path class="st0" d="M175.5,183.9c4.5-14,13.6-19,16.6-20.3c0.3-2,0.7-4.4,1.3-6.9c1.4-6,3-9.8,5-11.6
				c-9.6-12-21.3-17.5-28.2-19.9c-6.5,8.1-12.1,17.8-16.3,29.3c-3.7,10.3-6.5,22.4-8.7,35.6C151.4,187.1,162.2,182.3,175.5,183.9z"
				/>
			<path class="st0" d="M203.6,412.7c-18-21.4-33.9-32.8-37.7-35.4c-2.4,2.7-4.9,5.3-7.5,7.8c-9.9,9.5-21.4,17.5-34.5,23.9
				c-8.8,15.3-19.6,27.4-26,35.4h88.2C190.9,428.7,199.8,417.1,203.6,412.7z"/>
			<path class="st0" d="M178.1,353.8c9.5-17.4,11.6-31.7,11.8-33c-0.1-26.1-26.1-48.7-29.2-51.4c-7.7-1.6-15.4-0.4-21.9,1.6
				c-1.4,50.4,0.1,97.8-4.4,113.5c-1.9,6.8-4.6,13.2-7.6,19.2C154.5,388.7,169.9,368.7,178.1,353.8z"/>
			<path class="st1" d="M160,265.8c-2.6-23.5,6.5-41.7,14.8-53c7-9.6,14.5-15.8,17.8-18.3c-7.9-6.7-15.5-6.9-15.9-6.9
				c-0.1,0-0.2,0-0.2,0c0,0,0,0,0,0c-14.2-2.2-25.8,3.7-31.4,6.6c-0.2,0.1-0.4,0.2-0.5,0.3c-3.4,22.6-5,48-5.7,72.9
				C145.2,265.5,152.6,264.5,160,265.8z"/>
			<path class="st1" d="M330.2,444.4c-9.6-24.4-29.4-41.7-33.6-45.2c-1.9,0.9-3.9,1.8-5.9,2.6c-22,9.5-40.6,13.9-44,14.6L234,430.2
				c-0.3,0.4-0.8,0.6-1.3,0.6c-0.1,0-0.3,0-0.4,0c-3.5-0.8-20.6-12.7-25.5-16.1c-0.1,0-0.2-0.1-0.2-0.1c-3.2,3.7-12,14.9-16.9,29.9
				H330.2z"/>
			<path class="st7" d="M261.5,123.8c-2.2-1.2-6.7-3.7-10.9-6c0.3,0.4,0.6,0.9,0.9,1.4c3.5,5.6,7.1,14.7,3.9,26.1c0,0,0,0.1,0,0.1
				c0.4,4.6-0.5,9.7-1.1,12.3c2.7,1.5,4.4,2.7,4.6,2.8c0.1,0.1,0.2,0.1,0.2,0.2c8.6-4.9,11.3-14.2,12.7-19.4
				C273.4,135.5,265.9,126.2,261.5,123.8z"/>
			<path class="st4" d="M241.7,113.1c-11.5,5.6-18.7,13-22.2,17.3c0.3,0.1,0.6,0.1,0.8,0.3c1,0.4,1.8,1.3,2.2,2.4c0.7,2,0.4,5-0.3,8
				c3.9-4.7,8.6-9.5,12.1-10c1.2-0.2,2.4,0.1,3.2,0.8c2.4,2,3.2,6,2.4,11.9c2.4-3.2,5.3-6.1,8-6.8c1.4-0.4,2.7-0.2,3.8,0.6
				c0.5,0.3,0.9,0.7,1.2,1.1C254.2,124.8,244.6,115.6,241.7,113.1z"/>
			<path class="st6" d="M239.1,243.3c2.4-1.4,4.1-2.9,5.3-4c-2.6-0.2-5.3-0.6-8.1-1c-1.9-0.3-3.8-0.5-5.7-0.7c-0.1,0-0.2,0-0.2,0
				c-1.2,2.4-4,8.8-2.6,15.2C230.4,250.1,235.1,245.8,239.1,243.3z"/>
			<path class="st7" d="M305.9,161.3c-0.9-2.6-3-7.4-7.9-13.2c-0.4-0.1-1.5-0.3-3,0.2c-3.1,1.1-7.9,4.9-13.5,17.1
				c-1,2.1-1.9,4.1-2.7,6.1c0,0,0.1-0.1,0.1-0.1C284.2,166.1,293.1,160.3,305.9,161.3z"/>
			<path class="st7" d="M219,133.9c-0.1,0-2.1-0.8-9.3,5.6c-2,1.8-3.8,3.6-5.2,5c3,1.3,5.1,4.7,6,6.5c1.1-0.3,2.9-0.6,5-1
				c2.2-4.9,4.9-12.8,3.8-15.6C219.2,134,219,133.9,219,133.9z"/>
			<path class="st6" d="M197.7,288c5.3,3.3,9.9,6.4,14.1,9.3c3.1-18.8,0.5-25-0.3-26.2c-5-1.8-10.1-2.8-14.9-3.1
				c-12.2-0.8-22.8,0-29,0.8c11.7,5.5,21.3,12.2,29.2,19.1C197,287.7,197.4,287.8,197.7,288z"/>
			<path class="st6" d="M188.5,299.9c1.8-0.4,7-1.8,11.8-4.1c-7.7-7.7-17.5-15.3-29.8-21.8c2.3,2.4,4.8,5.2,7.3,8.5
				C181.5,287.1,185.5,293.1,188.5,299.9z"/>
			<path class="st6" d="M222.3,325.8c-1.8-3.4-3.9-7.2-6.6-11.3c-3.2-4.9-7.5-10.5-12.8-16.2c-5,2.6-10.6,4.1-13,4.8
				c1.9,5,3.2,10.5,3.4,16.1C198.1,319.6,212.3,321,222.3,325.8z"/>
			<path class="st0" d="M177.6,214.9c-11.4,15.6-16.1,32.7-14.1,50.8c5.1-0.8,17.7-2.3,33.3-1.3c15.6,1.1,35.4,9,39.8,27.8
				c3.4,14.6,0.5,22.4-0.7,24.8c1.7,1.8,2.9,3.3,3.7,4.5c0.1-0.1,0.1-0.2,0.2-0.4c6-13.2,12.2-26.9,13.6-40.2
				c2.7-25.4-2.5-36.7-3.4-38.4c-0.8-0.7-1.4-1.4-2-2c-1.3,1.4-3.5,3.5-7,5.6c-5.5,3.4-12.6,10.8-12.7,10.9
				c-0.3,0.3-0.8,0.5-1.2,0.5c-0.1,0-0.2,0-0.3,0c-0.6-0.1-1-0.5-1.3-1c-3.3-8.1-0.2-16.4,1.6-20c-7.8-3.3-14.4-13.8-20.8-24
				c-2.5-4-5.2-8.2-7.8-11.8c-1-1.4-2.1-2.7-3.2-3.8C192.4,199,184.7,205.2,177.6,214.9z"/>
			<path class="st0" d="M168.1,374.6c4.3,2.9,18.7,13.5,35.7,33c-0.4-6.3,1.4-18.6,7.6-34.4c3.4-8.5,8.8-20,17.3-32.1
				c-0.5-1.7-1.7-5.2-3.7-9.8c-8.7-6.5-26.6-8.3-31.9-8.7c-0.7,4.4-3.5,17.2-11.9,32.6C177.4,362.1,173,368.6,168.1,374.6z"/>
			<path class="st4" d="M201.3,147.4c-0.1,0-2.2,0.4-4.5,10.2c-0.8,3.7-1.4,7.4-1.7,9.3c2,0.4,6.6,0.8,13.7-2.4
				c8.4-3.8,19.7-9.3,24.3-11.5c-1.7-0.7-5.1-1.1-10.9-0.4c-6.2,0.7-12.2,2.2-12.3,2.2c-0.8,0.2-1.7-0.2-2-1
				C207.9,153.6,205.1,146.8,201.3,147.4z"/>
		</g>
	</g>
</g>
</svg>
